<svg width="1200" height="800" viewBox="0 0 1200 800" fill="none" xmlns="http://www.w3.org/2000/svg" role="img" aria-labelledby="title desc">
  <title id="title">Comercio local en L'Eliana</title>
  <desc id="desc">Ilustracion de escaparates y calles para representar negocios locales.</desc>
  <rect width="1200" height="800" fill="#F1F5F9"/>
  <rect y="520" width="1200" height="280" fill="#E2E8F0"/>
  <rect x="80" y="220" width="290" height="330" rx="18" fill="#FFFFFF" stroke="#CBD5E1" stroke-width="4"/>
  <rect x="130" y="290" width="190" height="120" rx="10" fill="#DCFCE7"/>
  <rect x="130" y="430" width="190" height="18" rx="9" fill="#94A3B8"/>
  <rect x="130" y="460" width="130" height="18" rx="9" fill="#CBD5E1"/>
  <rect x="455" y="170" width="290" height="380" rx="18" fill="#FFFFFF" stroke="#CBD5E1" stroke-width="4"/>
  <rect x="505" y="250" width="190" height="150" rx="10" fill="#FEF3C7"/>
  <rect x="505" y="420" width="190" height="18" rx="9" fill="#94A3B8"/>
  <rect x="505" y="450" width="145" height="18" rx="9" fill="#CBD5E1"/>
  <rect x="830" y="240" width="290" height="310" rx="18" fill="#FFFFFF" stroke="#CBD5E1" stroke-width="4"/>
  <rect x="880" y="300" width="190" height="110" rx="10" fill="#DBEAFE"/>
  <rect x="880" y="430" width="190" height="18" rx="9" fill="#94A3B8"/>
  <rect x="880" y="460" width="120" height="18" rx="9" fill="#CBD5E1"/>
  <circle cx="170" cy="170" r="45" fill="#FCD34D"/>
</svg>
